<svg fill="#e6e6e6" xmlns="http://www.w3.org/2000/svg" xmlns:xlink="http://www.w3.org/1999/xlink" version="1.1" x="0px" y="0px" viewBox="0 0 100 100" enable-background="new 0 0 100 100" xml:space="preserve"><g><path d="M95,49.9c0-0.9-0.7-1.6-1.6-1.6c-0.1,0-0.1,0-0.2,0c0-0.5,0-1.1-0.1-1.6c0.1,0,0.1,0,0.2,0c0.9-0.1,1.5-0.9,1.4-1.8   c-0.2-1.7-0.5-3.3-0.8-5c-0.2-0.9-1.1-1.4-2-1.2c-0.1,0-0.1,0-0.2,0.1c-0.1-0.5-0.3-1-0.4-1.5c0.1,0,0.1,0,0.2,0   c0.9-0.3,1.3-1.2,1-2.1c-0.6-1.6-1.2-3.1-1.9-4.7c-0.4-0.8-1.4-1.2-2.2-0.8c-0.1,0-0.1,0.1-0.1,0.1c-0.3-0.5-0.5-0.9-0.8-1.4   c0.1,0,0.1-0.1,0.2-0.1c0.8-0.5,1-1.5,0.5-2.3c-0.9-1.4-1.9-2.8-2.9-4.1c-0.6-0.7-1.6-0.8-2.3-0.3c0,0-0.1,0.1-0.1,0.1   c-0.4-0.4-0.7-0.8-1.1-1.2c0,0,0.1-0.1,0.1-0.1c0.6-0.6,0.6-1.7,0-2.3c-1.2-1.2-2.5-2.3-3.8-3.4c-0.7-0.6-1.7-0.4-2.3,0.3   c0,0-0.1,0.1-0.1,0.2c-0.4-0.3-0.9-0.6-1.3-0.9c0,0,0.1-0.1,0.1-0.1c0.5-0.8,0.2-1.8-0.5-2.3c-1.4-0.9-2.9-1.7-4.4-2.4   c-0.8-0.4-1.8,0-2.2,0.8c0,0.1,0,0.1-0.1,0.2c-0.5-0.2-1-0.4-1.5-0.6c0-0.1,0-0.1,0.1-0.2c0.3-0.9-0.2-1.8-1-2.1   c-1.6-0.6-3.2-1-4.9-1.4c-0.9-0.2-1.8,0.4-2,1.2c0,0.1,0,0.1,0,0.2c-0.5-0.1-1.1-0.2-1.6-0.3c0-0.1,0-0.1,0-0.2   c0.1-0.9-0.5-1.7-1.4-1.8C53.3,5.1,51.7,5,50,5l-0.1,0c-0.9,0-1.6,0.7-1.6,1.6c0,0.1,0,0.1,0,0.2c-0.5,0-1.1,0-1.6,0.1   c0-0.1,0-0.1,0-0.2c-0.1-0.9-0.9-1.5-1.8-1.4c-1.7,0.2-3.3,0.5-5,0.8c-0.9,0.2-1.4,1.1-1.2,2c0,0.1,0,0.1,0.1,0.2   c-0.5,0.1-1,0.3-1.5,0.4c0-0.1,0-0.1,0-0.2c-0.3-0.9-1.2-1.3-2.1-1c-1.6,0.6-3.1,1.2-4.7,1.9c-0.8,0.4-1.2,1.4-0.8,2.2   c0,0.1,0.1,0.1,0.1,0.2c-0.5,0.3-0.9,0.5-1.4,0.8c0-0.1,0-0.1-0.1-0.2c-0.5-0.8-1.5-1-2.3-0.5c-1.4,0.9-2.8,1.9-4.1,2.9   c-0.7,0.6-0.8,1.6-0.3,2.3c0,0,0.1,0.1,0.1,0.1c-0.4,0.4-0.8,0.7-1.2,1.1c0,0-0.1-0.1-0.1-0.1c-0.6-0.6-1.7-0.6-2.3,0   c-1.2,1.2-2.3,2.5-3.4,3.8c-0.6,0.7-0.4,1.7,0.3,2.3c0,0,0.1,0.1,0.1,0.1c-0.3,0.4-0.6,0.9-0.9,1.3c0,0-0.1-0.1-0.1-0.1   c-0.8-0.5-1.8-0.2-2.3,0.5c-0.9,1.4-1.7,2.9-2.4,4.4c-0.4,0.8,0,1.8,0.8,2.2c0.1,0,0.1,0,0.2,0.1c-0.2,0.5-0.4,1-0.6,1.5   c-0.1,0-0.1-0.1-0.2-0.1c-0.9-0.3-1.8,0.2-2.1,1c-0.6,1.6-1,3.2-1.4,4.9c-0.2,0.9,0.4,1.8,1.2,2c0.1,0,0.1,0,0.2,0   c-0.1,0.5-0.2,1.1-0.3,1.6c-0.1,0-0.1,0-0.2,0c-0.9-0.1-1.7,0.5-1.8,1.4C5.1,46.7,5,48.3,5,50l1.6,0H5c0,0.9,0.7,1.6,1.6,1.6   c0.1,0,0.1,0,0.2,0c0,0.5,0,1.1,0.1,1.6c-0.1,0-0.1,0-0.2,0c-0.9,0.1-1.5,0.9-1.4,1.8c0.2,1.7,0.5,3.3,0.8,5   c0.2,0.8,0.8,1.3,1.6,1.3c0.1,0,0.2,0,0.4,0c0.1,0,0.1,0,0.2-0.1c0.1,0.5,0.3,1,0.4,1.6c-0.1,0-0.1,0-0.2,0c-0.9,0.3-1.3,1.2-1,2.1   c0.6,1.6,1.2,3.1,1.9,4.7c0.3,0.6,0.9,0.9,1.5,0.9c0.2,0,0.5-0.1,0.7-0.2c0.1,0,0.1-0.1,0.1-0.1c0.3,0.5,0.5,0.9,0.8,1.4   c-0.1,0-0.1,0-0.2,0.1c-0.8,0.5-1,1.5-0.5,2.3c0.9,1.4,1.9,2.8,2.9,4.1c0.3,0.4,0.8,0.6,1.3,0.6c0.4,0,0.7-0.1,1-0.4   c0,0,0.1-0.1,0.1-0.1c0.4,0.4,0.7,0.8,1.1,1.2c0,0-0.1,0.1-0.1,0.1c-0.6,0.6-0.6,1.7,0,2.3c1.2,1.2,2.5,2.3,3.8,3.4   c0.3,0.2,0.7,0.4,1,0.4c0.5,0,1-0.2,1.3-0.6c0,0,0.1-0.1,0.1-0.1c0.4,0.3,0.9,0.6,1.3,0.9c0,0-0.1,0.1-0.1,0.1   c-0.5,0.8-0.3,1.8,0.5,2.3c1.4,0.9,2.9,1.7,4.4,2.4c0.2,0.1,0.5,0.2,0.7,0.2c0.6,0,1.2-0.3,1.5-0.9c0-0.1,0-0.1,0.1-0.2   c0.5,0.2,1,0.4,1.5,0.6c0,0.1-0.1,0.1-0.1,0.2c-0.3,0.9,0.2,1.8,1,2.1c1.6,0.6,3.2,1,4.9,1.4c0.1,0,0.2,0,0.4,0   c0.7,0,1.4-0.5,1.6-1.3c0-0.1,0-0.1,0-0.2c0.5,0.1,1.1,0.2,1.6,0.3c0,0.1,0,0.1,0,0.2c-0.1,0.9,0.5,1.7,1.4,1.8   c1.7,0.2,3.3,0.3,5,0.3h0c0.9,0,1.6-0.7,1.6-1.6c0-0.1,0-0.1,0-0.2c0.5,0,1.1,0,1.6-0.1c0,0.1,0,0.1,0,0.2c0.1,0.8,0.8,1.5,1.6,1.5   c0.1,0,0.1,0,0.2,0c1.7-0.2,3.3-0.5,5-0.8c0.9-0.2,1.4-1.1,1.2-2c0-0.1,0-0.1-0.1-0.2c0.5-0.1,1-0.3,1.6-0.4c0,0.1,0,0.1,0,0.2   c0.2,0.7,0.9,1.1,1.5,1.1c0.2,0,0.4,0,0.5-0.1c1.6-0.6,3.2-1.2,4.7-1.9c0.8-0.4,1.2-1.4,0.8-2.2c0-0.1-0.1-0.1-0.1-0.1   c0.5-0.3,0.9-0.5,1.4-0.8c0,0.1,0,0.1,0.1,0.2c0.3,0.5,0.8,0.8,1.4,0.8c0.3,0,0.6-0.1,0.9-0.3c1.4-0.9,2.8-1.9,4.1-2.9   c0.7-0.6,0.8-1.6,0.3-2.3c0,0-0.1-0.1-0.1-0.1c0.4-0.4,0.8-0.7,1.2-1.1c0,0,0.1,0.1,0.1,0.1c0.3,0.3,0.7,0.5,1.2,0.5   c0.4,0,0.8-0.2,1.2-0.5c1.2-1.2,2.3-2.4,3.4-3.8c0.6-0.7,0.4-1.7-0.3-2.3c0,0-0.1-0.1-0.1-0.1c0.3-0.4,0.6-0.9,0.9-1.3   c0,0,0.1,0.1,0.1,0.1c0.3,0.2,0.6,0.3,0.9,0.3c0.5,0,1.1-0.3,1.4-0.8c0.9-1.4,1.7-2.9,2.4-4.4c0.4-0.8,0.1-1.8-0.8-2.2   c-0.1,0-0.1,0-0.2-0.1c0.2-0.5,0.4-1,0.6-1.5c0.1,0,0.1,0.1,0.2,0.1c0.2,0.1,0.4,0.1,0.5,0.1c0.7,0,1.3-0.4,1.5-1.1   c0.6-1.6,1-3.2,1.4-4.9c0.2-0.9-0.4-1.8-1.2-2c-0.1,0-0.1,0-0.2,0c0.1-0.5,0.2-1.1,0.3-1.6c0.1,0,0.1,0,0.2,0c0.1,0,0.1,0,0.2,0   c0.8,0,1.5-0.6,1.6-1.5C94.9,53.4,95,51.7,95,49.9L95,49.9z M50,85.1c-19.3,0-35.1-15.7-35.1-35.1c0-19.3,15.7-35.1,35.1-35.1   S85.1,30.7,85.1,50C85.1,69.3,69.3,85.1,50,85.1z"/><path d="M50,15.5C31,15.5,15.5,31,15.5,50C15.5,69,31,84.5,50,84.5C69,84.5,84.5,69,84.5,50C84.5,31,69,15.5,50,15.5z M36.8,20.8   l11.5,26.5c-0.1,0.1-0.2,0.1-0.3,0.2L27.7,27.1C30.3,24.5,33.4,22.4,36.8,20.8z M27.1,27.7l20.4,20.4c-0.1,0.1-0.2,0.3-0.3,0.4   L20.3,37.9C21.9,34.1,24.2,30.6,27.1,27.7z M20,38.7l26.9,10.6c0,0.1-0.1,0.2-0.1,0.4H18C18,45.7,18.8,42.1,20,38.7z M18,50.4h28.9   c0,0.2,0.1,0.3,0.1,0.5L20.5,62.4C18.9,58.7,18,54.7,18,50.4z M20.8,63.2l26.5-11.5c0.1,0.1,0.1,0.2,0.2,0.3L27.1,72.3   C24.5,69.7,22.4,66.6,20.8,63.2z M27.7,72.9l20.4-20.4c0.1,0.1,0.3,0.2,0.4,0.3L37.9,79.7C34.1,78.1,30.6,75.8,27.7,72.9z M49.6,82   c-3.8,0-7.5-0.8-10.9-2.1l10.6-26.9c0.1,0,0.2,0.1,0.4,0.1V82z M49.6,46.9c-0.2,0-0.3,0.1-0.5,0.1L37.6,20.5   c3.7-1.6,7.8-2.4,12-2.5V46.9z M72.3,27.1L51.9,47.5c-0.1-0.1-0.3-0.2-0.4-0.3l10.6-26.9C65.9,21.9,69.4,24.2,72.3,27.1z M50.4,18   c3.8,0,7.5,0.8,10.9,2.1L50.8,46.9c-0.1,0-0.2-0.1-0.4-0.1V18z M50.4,82V53.1c0.2,0,0.3-0.1,0.5-0.1l11.5,26.5   C58.7,81.1,54.7,82,50.4,82z M63.2,79.2L51.6,52.7c0.1-0.1,0.2-0.1,0.3-0.2l20.4,20.4C69.7,75.5,66.6,77.6,63.2,79.2z M72.9,72.3   L52.5,51.9c0.1-0.1,0.2-0.3,0.3-0.4l26.9,10.6C78.1,65.9,75.8,69.4,72.9,72.3z M80,61.3L53.1,50.8c0-0.1,0.1-0.2,0.1-0.4H82   C82,54.3,81.2,57.9,80,61.3z M82,49.6H53.1c0-0.2-0.1-0.3-0.1-0.5l26.5-11.5C81.1,41.3,82,45.3,82,49.6z M52.7,48.4   c-0.1-0.1-0.1-0.2-0.2-0.3l20.4-20.4c2.6,2.7,4.7,5.8,6.3,9.2L52.7,48.4z"/></g></svg>
